<?xml version="1.0" encoding="UTF-8" standalone="no"?>
<svg
   xmlns:dc="http://purl.org/dc/elements/1.1/"
   xmlns:cc="http://creativecommons.org/ns#"
   xmlns:rdf="http://www.w3.org/1999/02/22-rdf-syntax-ns#"
   xmlns:svg="http://www.w3.org/2000/svg"
   xmlns="http://www.w3.org/2000/svg"
   xmlns:sodipodi="http://sodipodi.sourceforge.net/DTD/sodipodi-0.dtd"
   xmlns:inkscape="http://www.inkscape.org/namespaces/inkscape"
   sodipodi:docname="chartreuse-no-alpha.svg"
   inkscape:version="1.0 (4035a4fb49, 2020-05-01)"
   id="svg8"
   version="1.1"
   viewBox="0 0 206.96613 31.141184"
   height="118.41737"
   width="767.48425">
  <defs
     id="defs2">
    <inkscape:path-effect
       update_on_knot_move="true"
       attempt_force_join="true"
       miter_limit="3.4"
       offset="0.2"
       unit="mm"
       linejoin_type="miter"
       lpeversion="1"
       is_visible="true"
       id="path-effect1045"
       effect="offset" />
    <inkscape:path-effect
       update_on_knot_move="true"
       attempt_force_join="true"
       miter_limit="4"
       offset="1.2"
       unit="mm"
       linejoin_type="miter"
       lpeversion="1"
       is_visible="true"
       id="path-effect993"
       effect="offset" />
    <inkscape:path-effect
       update_on_knot_move="true"
       attempt_force_join="true"
       miter_limit="4"
       offset="1.1"
       unit="mm"
       linejoin_type="miter"
       lpeversion="1"
       is_visible="true"
       id="path-effect982"
       effect="offset" />
    <inkscape:path-effect
       update_on_knot_move="true"
       attempt_force_join="true"
       miter_limit="4"
       offset="1.1"
       unit="mm"
       linejoin_type="miter"
       lpeversion="1"
       is_visible="true"
       id="path-effect950"
       effect="offset" />
    <inkscape:path-effect
       update_on_knot_move="true"
       attempt_force_join="true"
       miter_limit="4"
       offset="1.2"
       unit="mm"
       linejoin_type="miter"
       lpeversion="1"
       is_visible="true"
       id="path-effect942"
       effect="offset" />
    <inkscape:path-effect
       update_on_knot_move="true"
       attempt_force_join="true"
       miter_limit="4"
       offset="1.2"
       unit="mm"
       linejoin_type="miter"
       lpeversion="1"
       is_visible="true"
       id="path-effect930"
       effect="offset" />
    <inkscape:path-effect
       effect="offset"
       id="path-effect918"
       is_visible="true"
       lpeversion="1"
       linejoin_type="miter"
       unit="mm"
       offset="1.2"
       miter_limit="4"
       attempt_force_join="true"
       update_on_knot_move="true" />
    <inkscape:path-effect
       update_on_knot_move="true"
       attempt_force_join="true"
       miter_limit="4"
       offset="1.2"
       unit="mm"
       linejoin_type="miter"
       lpeversion="1"
       is_visible="true"
       id="path-effect914"
       effect="offset" />
  </defs>
  <sodipodi:namedview
     viewbox-width="206.83554"
     viewbox-height="30.24249"
     inkscape:window-maximized="0"
     inkscape:window-y="0"
     inkscape:window-x="4582"
     inkscape:window-height="1034"
     inkscape:window-width="3086"
     showborder="true"
     showgrid="false"
     inkscape:document-rotation="0"
     inkscape:current-layer="layer1"
     inkscape:document-units="px"
     inkscape:cy="135.73891"
     inkscape:cx="388.48146"
     inkscape:zoom="2.8284271"
     inkscape:pageshadow="2"
     inkscape:pageopacity="0"
     borderopacity="1.0"
     bordercolor="#666666"
     pagecolor="#ffffff"
     id="base"
     units="px"
     inkscape:pagecheckerboard="false"
     fit-margin-top="0.5"
     fit-margin-left="0.5"
     fit-margin-right="0.5"
     fit-margin-bottom="0.5" />
  <metadata
     id="metadata5">
    <rdf:RDF>
      <cc:Work
         rdf:about="">
        <dc:format>image/svg+xml</dc:format>
        <dc:type
           rdf:resource="http://purl.org/dc/dcmitype/StillImage" />
        <dc:title />
      </cc:Work>
    </rdf:RDF>
  </metadata>
  <g
     id="layer1"
     inkscape:groupmode="layer"
     inkscape:label="Layer 1"
     transform="translate(-0.02636936,0.09530541)">
    <path
       id="path1023"
       style="font-style:normal;font-variant:normal;font-weight:normal;font-stretch:normal;font-size:12.531px;line-height:1.25;font-family:Bahnschrift;-inkscape-font-specification:Bahnschrift;fill:#333333;fill-opacity:1;stroke:none;stroke-width:1.08454;stroke-opacity:1"
       d="m 10.987312,31.388056 q -3.1985308,0 -5.6344917,-1.419211 Q 2.9380419,28.549624 1.6035564,25.944211 0.26907078,23.338787 0.26907078,19.907264 v -8.451735 q 0,-3.4315333 1.33448562,-6.0369565 1.3344855,-2.6054233 3.7492639,-4.0246343 2.4359609,-1.44039834 5.6344917,-1.44039834 2.647783,0 4.871922,1.14384784 2.224145,1.1226606 3.706899,3.1985242 1.50395,2.0758637 2.033505,4.80838 v 0 h -4.427101 v 0 Q 16.770075,7.6638935 15.816869,6.541233 14.884852,5.3973852 13.613912,4.7831071 q -1.270938,-0.6142882 -2.6266,-0.6142882 -1.8852276,0 -3.3044358,0.9108387 Q 6.2636618,5.9904964 5.4799135,7.6427165 4.6961717,9.2737493 4.6961717,11.455529 v 8.451735 q 0,2.160582 0.7837418,3.812803 0.7837483,1.65222 2.2029627,2.563058 1.4192082,0.889662 3.3044358,0.889662 1.376844,0 2.6266,-0.571934 1.27094,-0.571914 2.202957,-1.694574 0.953206,-1.122661 1.355668,-2.668965 v 0 h 4.427101 v 0 q -0.529555,2.732516 -2.033505,4.80838 -1.503937,2.075864 -3.728082,3.219701 -2.224139,1.122661 -4.850739,1.122661 z" />
    <path
       id="path1025"
       style="font-style:normal;font-variant:normal;font-weight:normal;font-stretch:normal;font-size:12.531px;line-height:1.25;font-family:Bahnschrift;-inkscape-font-specification:Bahnschrift;fill:#333333;fill-opacity:1;stroke:none;stroke-width:1.08454;stroke-opacity:1"
       d="M 22.975364,0.27178817 V 31.071166 h 4.320424 V 17.95782 H 40.471752 V 30.59171 L 44.792176,18.873784 V 0.27178817 H 40.471752 V 13.848498 H 27.295788 V 0.27178817 Z" />
    <path
       id="path1027"
       style="font-style:normal;font-variant:normal;font-weight:normal;font-stretch:normal;font-size:12.531px;line-height:1.25;font-family:Bahnschrift;-inkscape-font-specification:Bahnschrift;fill:#333333;fill-opacity:1;stroke:none;stroke-width:1.08454;stroke-opacity:1"
       d="m 56.074643,0.27127764 h 3.685723 L 71.114071,31.070318 H 66.453966 L 57.917501,6.2235054 49.38104,31.070318 h -4.6601 z M 49.952966,20.203815 h 16.204449 v 4.109352 H 49.952966 Z" />
    <path
       id="path1029"
       style="font-style:normal;font-variant:normal;font-weight:normal;font-stretch:normal;font-size:12.531px;line-height:1.25;font-family:Bahnschrift;-inkscape-font-specification:Bahnschrift;fill:#b77172;fill-opacity:1;stroke:none;stroke-width:1.08454;stroke-opacity:1"
       d="M 71.23713,0.2503252 V 19.403323 l 4.302535,11.667843 h 0.01799 V 18.043682 h 6.433234 l 6.572774,13.027484 h 5.125486 L 86.579673,17.574968 c 0.537419,-0.169141 1.055929,-0.369149 1.538544,-0.633301 1.355667,-0.734325 2.409137,-1.771308 3.157575,-3.112856 0.383652,-0.694912 0.664818,-1.446116 0.85156,-2.248772 V 8.1898896 h -4.399145 c 0.04427,0.3064549 0.07335,0.6223241 0.07335,0.9571138 0,0.9461476 -0.176487,1.7863796 -0.529536,2.5206946 -0.338922,0.720204 -0.826144,1.277313 -1.461616,1.672723 -0.635454,0.395401 -1.363526,0.593939 -2.182571,0.593939 H 75.557676 V 4.3596576 h 7.860855 V 0.2503252 h -7.860855 z" />
    <path
       sodipodi:nodetypes="cccccccccc"
       id="path1031"
       style="font-style:normal;font-variant:normal;font-weight:normal;font-stretch:normal;font-size:12.531px;line-height:1.25;font-family:Bahnschrift;-inkscape-font-specification:Bahnschrift;fill:#333333;fill-opacity:1;stroke:none;stroke-width:1.08454;stroke-opacity:1"
       d="m 96.697872,2.7919722 h 4.321188 V 31.070318 H 96.697872 Z M 87.848678,0.27127764 H 110.01152 V 4.3806406 H 87.848678 Z" />
    <path
       sodipodi:nodetypes="ccsccscssccccccccccccsccsc"
       id="path1033"
       style="font-style:normal;font-variant:normal;font-weight:normal;font-stretch:normal;font-size:12.531px;line-height:1.25;font-family:Bahnschrift;-inkscape-font-specification:Bahnschrift;fill:#333333;fill-opacity:1;stroke:none;stroke-width:1.08454;stroke-opacity:1"
       d="m 113.02025,0.2503252 v 4.1093324 h 4.99398 c 0.83317,0 1.55944,0.1967405 2.18079,0.5921513 0.63547,0.3954007 1.1227,0.9616474 1.46161,1.6959732 0.35304,0.720194 0.52954,1.553084 0.52954,2.4992213 0,0.9461476 -0.17649,1.7863796 -0.52954,2.5206946 -0.33892,0.720204 -0.82614,1.277313 -1.46161,1.672723 -0.63547,0.395401 -1.36174,0.593939 -2.18079,0.593939 h -8.07016 V 8.5333788 h -4.32222 V 31.071166 h 4.32222 V 18.043682 h 6.43322 l 6.57279,13.027484 h 5.12547 l -7.11126,-13.496198 c 0.53742,-0.169141 1.05772,-0.369149 1.54032,-0.633301 1.35567,-0.734325 2.40736,-1.771308 3.1558,-3.112856 0.74844,-1.355669 1.12348,-2.916616 1.12348,-4.6818076 0,-1.7651917 -0.37504,-3.3187863 -1.12348,-4.6603345 -0.73433,-1.3556696 -1.77866,-2.4000035 -3.13432,-3.1343191 -1.34156,-0.73432568 -2.9025,-1.1020246 -4.68181,-1.1020246 z" />
    <path
       id="path1035"
       style="font-style:normal;font-variant:normal;font-weight:normal;font-stretch:normal;font-size:12.531px;line-height:1.25;font-family:Bahnschrift;-inkscape-font-specification:Bahnschrift;fill:#333333;fill-opacity:1;stroke:none;stroke-width:1.08454;stroke-opacity:1"
       d="M 128.08271,0.27178817 V 22.163746 l 4.69254,8.90742 h 12.64712 v -4.109323 h -13.01923 v -9.131045 h 13.13302 V 13.721476 H 132.40314 V 4.3811205 h 13.10018 V 0.27178817 h -13.10018 z"
       sodipodi:nodetypes="ccccccccccccccc" />
    <path
       id="path1037"
       style="font-style:normal;font-variant:normal;font-weight:normal;font-stretch:normal;font-size:12.531px;line-height:1.25;font-family:Bahnschrift;-inkscape-font-specification:Bahnschrift;fill:#b77172;fill-opacity:1;stroke:none;stroke-width:1.08454;stroke-opacity:1"
       d="M 146.88725,0.27178817 V 19.929299 c 0,1.155937 0.10281,2.22638 0.29696,3.223765 h 4.48144 c -0.30291,-0.890029 -0.45798,-1.914421 -0.45798,-3.077078 V 0.27178817 Z m 17.32644,0 V 20.075986 c 0,2.245332 -0.57181,3.982771 -1.71565,5.211347 -0.83554,0.908644 -1.93153,1.479036 -3.2846,1.715649 v 4.309698 c 1.64327,-0.157695 3.09366,-0.57465 4.34368,-1.259454 1.62398,-0.903783 2.85951,-2.209195 3.7068,-3.917901 0.84729,-1.722827 1.27019,-3.791247 1.27019,-6.206026 V 0.27178817 Z" />
    <path
       id="path1039"
       style="font-style:normal;font-variant:normal;font-weight:normal;font-stretch:normal;font-size:12.531px;line-height:1.25;font-family:Bahnschrift;-inkscape-font-specification:Bahnschrift;fill:#333333;fill-opacity:1;stroke:none;stroke-width:1.08454;stroke-opacity:1"
       d="m 179.80658,-0.27564051 c -2.30181,0 -4.27096,0.35301621 -5.90906,1.05908882 -1.6381,0.70607259 -2.88832,1.73750019 -3.74973,3.09316979 -0.8473,1.3415482 -1.2702,2.9650353 -1.2702,4.8714415 v 0.021443 c 0,2.1747134 0.45785,3.8551864 1.37575,5.0413884 0.91789,1.172091 2.01921,1.984733 3.30428,2.43662 1.29917,0.437765 2.97964,0.833063 5.04138,1.1861 l 0.31844,0.06259 c 0.0424,0.01419 0.0846,0.02144 0.12701,0.02144 0.0565,0 0.10611,0.0071 0.14848,0.02144 1.39804,0.254186 2.5343,0.535522 3.40984,0.846204 0.88965,0.296551 1.61035,0.763529 2.1611,1.398994 0.26242,0.288688 0.45702,0.631718 0.59752,1.017929 v -5.957343 c -1.223,-0.502226 -2.73013,-0.93998 -4.53689,-1.309548 -0.0707,-0.01419 -0.14962,-0.02869 -0.23437,-0.04289 -0.0847,-0.01419 -0.16198,-0.02706 -0.23257,-0.04115 -0.0565,-0.01419 -0.11345,-0.02144 -0.16995,-0.02144 -0.0424,-0.01419 -0.092,-0.02869 -0.14848,-0.04299 -1.59573,-0.310672 -2.84417,-0.606692 -3.74795,-0.889131 -0.88966,-0.29655 -1.63796,-0.748835 -2.24519,-1.356057 -0.59311,-0.607223 -0.89092,-1.4401128 -0.89092,-2.4992319 v -0.021443 c 0,-1.5392485 0.57915,-2.7251442 1.73711,-3.55832 1.17209,-0.8472872 2.81027,-1.2719722 4.91438,-1.2719722 1.17209,0 2.33773,0.2187957 3.49569,0.6565607 0.68625,0.2480495 1.3729,0.5804805 2.05914,0.978587 V 0.82454653 c -0.76111,-0.30329979 -1.52946,-0.56533799 -2.31317,-0.74063595 -1.05911,-0.24005481 -2.14018,-0.35959194 -3.24166,-0.35959194 z m 5.55483,24.14967451 c -0.28547,0.798633 -0.81657,1.462137 -1.59399,1.989359 -1.22857,0.819044 -2.95868,1.229046 -5.18989,1.229046 -1.65221,0 -3.18377,-0.253727 -4.59592,-0.762109 -1.41215,-0.508383 -2.70468,-1.27138 -3.87677,-2.288135 l -2.68885,3.304277 c 1.00262,0.847287 2.07456,1.553319 3.2184,2.118177 1.15797,0.564858 2.40084,0.987756 3.72827,1.270185 1.32743,0.282429 2.73212,0.423991 4.21487,0.423991 2.38655,0 4.42003,-0.345664 6.10049,-1.037616 0.24195,-0.10078 0.45787,-0.222859 0.68339,-0.336331 z" />
    <path
       sodipodi:nodetypes="cccccccccccccccccccc"
       id="path1041"
       style="font-style:normal;font-variant:normal;font-weight:normal;font-stretch:normal;font-size:12.531px;line-height:1.25;font-family:Bahnschrift;-inkscape-font-specification:Bahnschrift;fill:#333333;fill-opacity:1;stroke:none;stroke-width:1.08454;stroke-opacity:1"
       d="m 189.51131,0.27127764 h 4.3212 V 31.070318 h -4.3212 z m 2.09705,26.68968736 h 15.29933 v 4.109353 h -15.29933 z m 0,-13.238938 h 15.35717 v 4.109363 h -15.35717 z m 0,-13.45074936 h 15.29933 V 4.3806406 h -15.29933 z" />
  </g>
</svg>
