<?xml version="1.0" encoding="UTF-8" standalone="no"?>
<svg
   xmlns:dc="http://purl.org/dc/elements/1.1/"
   xmlns:cc="http://creativecommons.org/ns#"
   xmlns:rdf="http://www.w3.org/1999/02/22-rdf-syntax-ns#"
   xmlns:svg="http://www.w3.org/2000/svg"
   xmlns="http://www.w3.org/2000/svg"
   xmlns:sodipodi="http://sodipodi.sourceforge.net/DTD/sodipodi-0.dtd"
   xmlns:inkscape="http://www.inkscape.org/namespaces/inkscape"
   sodipodi:docname="chartreuse-no-alpha-new-font.svg"
   inkscape:version="1.0 (4035a4fb49, 2020-05-01)"
   id="svg8"
   version="1.1"
   viewBox="0 0 206.42679 26.670558"
   height="101.41737"
   width="765.48425">
  <defs
     id="defs2">
    <inkscape:path-effect
       update_on_knot_move="true"
       attempt_force_join="true"
       miter_limit="3.4"
       offset="0.2"
       unit="mm"
       linejoin_type="miter"
       lpeversion="1"
       is_visible="true"
       id="path-effect1045"
       effect="offset" />
    <inkscape:path-effect
       update_on_knot_move="true"
       attempt_force_join="true"
       miter_limit="4"
       offset="1.2"
       unit="mm"
       linejoin_type="miter"
       lpeversion="1"
       is_visible="true"
       id="path-effect993"
       effect="offset" />
    <inkscape:path-effect
       update_on_knot_move="true"
       attempt_force_join="true"
       miter_limit="4"
       offset="1.1"
       unit="mm"
       linejoin_type="miter"
       lpeversion="1"
       is_visible="true"
       id="path-effect982"
       effect="offset" />
    <inkscape:path-effect
       update_on_knot_move="true"
       attempt_force_join="true"
       miter_limit="4"
       offset="1.1"
       unit="mm"
       linejoin_type="miter"
       lpeversion="1"
       is_visible="true"
       id="path-effect950"
       effect="offset" />
    <inkscape:path-effect
       update_on_knot_move="true"
       attempt_force_join="true"
       miter_limit="4"
       offset="1.2"
       unit="mm"
       linejoin_type="miter"
       lpeversion="1"
       is_visible="true"
       id="path-effect942"
       effect="offset" />
    <inkscape:path-effect
       update_on_knot_move="true"
       attempt_force_join="true"
       miter_limit="4"
       offset="1.2"
       unit="mm"
       linejoin_type="miter"
       lpeversion="1"
       is_visible="true"
       id="path-effect930"
       effect="offset" />
    <inkscape:path-effect
       effect="offset"
       id="path-effect918"
       is_visible="true"
       lpeversion="1"
       linejoin_type="miter"
       unit="mm"
       offset="1.2"
       miter_limit="4"
       attempt_force_join="true"
       update_on_knot_move="true" />
    <inkscape:path-effect
       update_on_knot_move="true"
       attempt_force_join="true"
       miter_limit="4"
       offset="1.2"
       unit="mm"
       linejoin_type="miter"
       lpeversion="1"
       is_visible="true"
       id="path-effect914"
       effect="offset" />
  </defs>
  <sodipodi:namedview
     viewbox-width="206.83554"
     viewbox-height="30.24249"
     inkscape:window-maximized="0"
     inkscape:window-y="0"
     inkscape:window-x="1422"
     inkscape:window-height="1750"
     inkscape:window-width="2406"
     showborder="true"
     showgrid="false"
     inkscape:document-rotation="0"
     inkscape:current-layer="layer1"
     inkscape:document-units="px"
     inkscape:cy="-64.294317"
     inkscape:cx="391.93849"
     inkscape:zoom="1.4142136"
     inkscape:pageshadow="2"
     inkscape:pageopacity="0"
     borderopacity="1.0"
     bordercolor="#666666"
     pagecolor="#ffffff"
     id="base"
     units="px"
     inkscape:pagecheckerboard="false"
     fit-margin-top="0.5"
     fit-margin-left="0.5"
     fit-margin-right="0.5"
     fit-margin-bottom="0.5" />
  <metadata
     id="metadata5">
    <rdf:RDF>
      <cc:Work
         rdf:about="">
        <dc:format>image/svg+xml</dc:format>
        <dc:type
           rdf:resource="http://purl.org/dc/dcmitype/StillImage" />
        <dc:title></dc:title>
      </cc:Work>
    </rdf:RDF>
  </metadata>
  <g
     id="layer1"
     inkscape:groupmode="layer"
     inkscape:label="Layer 1"
     transform="translate(-0.02636936,0.09530541)">
    <path
       d="m 17.714491,15.298091 2.929295,0.762657 q 0.06933,0.901321 0.06933,1.559979 0,3.449288 -2.495967,5.511928 -2.495967,2.062639 -6.690579,2.062639 -10.5211946,0 -10.5211946,-11.838511 0,-5.6159258 3.0679597,-9.0998799 3.0679596,-3.50128725 7.9905619,-3.50128725 7.678565,0 7.678565,7.38390285 l -2.946628,1.3519822 q 0.052,-1.0399863 0.052,-1.6119788 0,-5.2345978 -4.194612,-5.2345978 -4.4372748,0 -4.4372748,11.1105207 0,9.550541 4.9572678,9.550541 2.045307,0 3.397289,-1.629312 1.369315,-1.629312 1.369315,-4.07328 0,-0.77999 -0.22533,-2.305303 z"
       style="font-style:normal;font-variant:normal;font-weight:normal;font-stretch:normal;font-size:35.4982px;line-height:1.25;font-family:'Britannic Bold';-inkscape-font-specification:'Britannic Bold, Normal';font-variant-ligatures:normal;font-variant-caps:normal;font-variant-numeric:normal;font-variant-east-asian:normal;fill:#000000;fill-opacity:1;stroke:none;stroke-width:0.887457"
       id="path1321" />
    <path
       d="m 30.176994,13.027454 v 11.769179 h -6.86391 V 1.1369442 h 6.86391 v 9.5158748 h 5.598593 V 1.1369442 h 6.863909 V 24.796633 H 35.775587 V 13.027454 Z"
       style="font-style:normal;font-variant:normal;font-weight:normal;font-stretch:normal;font-size:35.4982px;line-height:1.25;font-family:'Britannic Bold';-inkscape-font-specification:'Britannic Bold, Normal';font-variant-ligatures:normal;font-variant-caps:normal;font-variant-numeric:normal;font-variant-east-asian:normal;fill:#000000;fill-opacity:1;stroke:none;stroke-width:0.887457"
       id="path1323" />
    <path
       d="m 57.441967,1.1369442 6.58658,23.6596888 h -6.898576 l -1.403982,-5.130599 h -7.123906 l -1.50798,5.130599 H 44.407472 L 51.410046,1.1369442 Z M 49.278074,17.291398 h 5.80659 L 52.294035,6.8048696 Z"
       style="font-style:normal;font-variant:normal;font-weight:normal;font-stretch:normal;font-size:35.4982px;line-height:1.25;font-family:'Britannic Bold';-inkscape-font-specification:'Britannic Bold, Normal';font-variant-ligatures:normal;font-variant-caps:normal;font-variant-numeric:normal;font-variant-east-asian:normal;fill:#000000;fill-opacity:1;stroke:none;stroke-width:0.887457"
       id="path1325" />
    <path
       d="M 65.900524,24.796633 V 1.1369442 h 10.174532 q 3.969281,0 6.343917,1.6813112 2.374635,1.6639781 2.374635,4.4719411 0,4.2986105 -5.095933,5.5985925 2.617299,0.970654 3.379956,2.131972 0.779989,1.161318 1.057319,4.506608 0.329329,3.986614 1.334649,5.269264 h -7.453235 q -0.710657,-1.646645 -0.710657,-4.107946 l -0.03467,-1.403982 -0.03467,-1.767976 q 0,-4.090613 -3.29329,-4.090613 h -1.178651 v 11.370517 z m 6.863909,-13.329158 h 1.386649 q 3.899948,0 3.899948,-4.0732799 0,-4.0732797 -3.899948,-4.0732797 h -1.386649 z"
       style="font-style:normal;font-variant:normal;font-weight:normal;font-stretch:normal;font-size:35.4982px;line-height:1.25;font-family:'Britannic Bold';-inkscape-font-specification:'Britannic Bold, Normal';font-variant-ligatures:normal;font-variant-caps:normal;font-variant-numeric:normal;font-variant-east-asian:normal;fill:#000000;fill-opacity:1;stroke:none;stroke-width:0.887457"
       id="path1327" />
    <path
       d="M 104.96934,1.1369442 V 3.5115796 H 99.162751 V 24.796633 H 91.882847 V 3.5115796 H 86.041591 V 1.1369442 Z"
       style="font-style:normal;font-variant:normal;font-weight:normal;font-stretch:normal;font-size:35.4982px;line-height:1.25;font-family:'Britannic Bold';-inkscape-font-specification:'Britannic Bold, Normal';font-variant-ligatures:normal;font-variant-caps:normal;font-variant-numeric:normal;font-variant-east-asian:normal;fill:#000000;fill-opacity:1;stroke:none;stroke-width:0.887457"
       id="path1329" />
    <path
       d="M 106.73732,24.796633 V 1.1369442 h 10.17453 q 3.96928,0 6.34392,1.6813112 2.37463,1.6639781 2.37463,4.4719411 0,4.2986105 -5.09593,5.5985925 2.6173,0.970654 3.37996,2.131972 0.77999,1.161318 1.05732,4.506608 0.32932,3.986614 1.33465,5.269264 h -7.45324 q -0.71066,-1.646645 -0.71066,-4.107946 l -0.0347,-1.403982 -0.0347,-1.767976 q 0,-4.090613 -3.29329,-4.090613 h -1.17865 v 11.370517 z m 6.86391,-13.329158 h 1.38665 q 3.89995,0 3.89995,-4.0732799 0,-4.0732797 -3.89995,-4.0732797 h -1.38665 z"
       style="font-style:normal;font-variant:normal;font-weight:normal;font-stretch:normal;font-size:35.4982px;line-height:1.25;font-family:'Britannic Bold';-inkscape-font-specification:'Britannic Bold, Normal';font-variant-ligatures:normal;font-variant-caps:normal;font-variant-numeric:normal;font-variant-east-asian:normal;fill:#000000;fill-opacity:1;stroke:none;stroke-width:0.887457"
       id="path1331" />
    <path
       d="m 144.52349,1.1369442 v 2.3746354 h -8.47589 v 7.1585724 h 7.12391 v 2.374635 h -7.12391 v 9.37721 h 9.91454 v 2.374636 H 129.18369 V 1.1369442 Z"
       style="font-style:normal;font-variant:normal;font-weight:normal;font-stretch:normal;font-size:35.4982px;line-height:1.25;font-family:'Britannic Bold';-inkscape-font-specification:'Britannic Bold, Normal';font-variant-ligatures:normal;font-variant-caps:normal;font-variant-numeric:normal;font-variant-east-asian:normal;fill:#000000;fill-opacity:1;stroke:none;stroke-width:0.887457"
       id="path1333" />
    <path
       d="M 165.91253,1.1369442 V 17.014069 q 0,8.163892 -9.03054,8.163892 -8.99589,0 -8.99589,-8.163892 V 1.1369442 h 6.86391 V 17.222066 q 0,3.119959 0.88399,4.263944 0.90132,1.143985 3.31063,1.143985 4.6626,0 4.6626,-5.615926 V 1.1369442 Z"
       style="font-style:normal;font-variant:normal;font-weight:normal;font-stretch:normal;font-size:35.4982px;line-height:1.25;font-family:'Britannic Bold';-inkscape-font-specification:'Britannic Bold, Normal';font-variant-ligatures:normal;font-variant-caps:normal;font-variant-numeric:normal;font-variant-east-asian:normal;fill:#000000;fill-opacity:1;stroke:none;stroke-width:0.887457"
       id="path1335" />
    <path
       d="m 185.08296,7.7581903 -3.1893,0.5893256 q 0.208,-0.9533208 0.208,-1.5946457 0,-4.125279 -5.00927,-4.125279 -3.95194,0 -3.95194,2.8426293 0,2.1319719 4.41994,3.6572852 8.52789,2.9292943 8.52789,8.6665523 0,3.362623 -2.39197,5.407929 -2.39197,2.027973 -6.36125,2.027973 -8.78789,0 -8.78789,-6.81191 0,-0.554659 0.0867,-1.369315 l 3.31062,-0.727991 q -0.38133,1.50798 -0.38133,2.617299 0,4.402609 5.04394,4.402609 4.03861,0 4.03861,-3.171958 0,-2.357303 -4.83594,-4.142612 -6.98524,-2.5653 -6.98524,-8.1985592 0,-3.1892914 2.32264,-5.1305992 2.33997,-1.95864086 6.13592,-1.95864086 7.7999,0 7.7999,7.01990756 z"
       style="font-style:normal;font-variant:normal;font-weight:normal;font-stretch:normal;font-size:35.4982px;line-height:1.25;font-family:'Britannic Bold';-inkscape-font-specification:'Britannic Bold, Normal';font-variant-ligatures:normal;font-variant-caps:normal;font-variant-numeric:normal;font-variant-east-asian:normal;fill:#000000;fill-opacity:1;stroke:none;stroke-width:0.887457"
       id="path1337" />
    <path
       d="m 204.4267,1.1369442 v 2.3746354 h -8.47589 v 7.1585724 h 7.1239 v 2.374635 h -7.1239 v 9.37721 h 9.91453 v 2.374636 H 189.0869 V 1.1369442 Z"
       style="font-style:normal;font-variant:normal;font-weight:normal;font-stretch:normal;font-size:35.4982px;line-height:1.25;font-family:'Britannic Bold';-inkscape-font-specification:'Britannic Bold, Normal';font-variant-ligatures:normal;font-variant-caps:normal;font-variant-numeric:normal;font-variant-east-asian:normal;fill:#000000;fill-opacity:1;stroke:none;stroke-width:0.887457"
       id="path1339" />
  </g>
</svg>
