<?xml version="1.0" encoding="UTF-8" standalone="no"?>
<svg
   xmlns:dc="http://purl.org/dc/elements/1.1/"
   xmlns:cc="http://creativecommons.org/ns#"
   xmlns:rdf="http://www.w3.org/1999/02/22-rdf-syntax-ns#"
   xmlns:svg="http://www.w3.org/2000/svg"
   xmlns="http://www.w3.org/2000/svg"
   xmlns:sodipodi="http://sodipodi.sourceforge.net/DTD/sodipodi-0.dtd"
   xmlns:inkscape="http://www.inkscape.org/namespaces/inkscape"
   width="1200"
   height="800"
   viewBox="0 0 323.6022 210.38256"
   version="1.1"
   id="svg8"
   inkscape:version="1.0 (4035a4fb49, 2020-05-01)"
   sodipodi:docname="chartreuse-no-alpha-new-font.svg">
  <defs
     id="defs2">
    <inkscape:path-effect
       effect="offset"
       id="path-effect1045"
       is_visible="true"
       lpeversion="1"
       linejoin_type="miter"
       unit="mm"
       offset="0.2"
       miter_limit="3.4"
       attempt_force_join="true"
       update_on_knot_move="true" />
    <inkscape:path-effect
       effect="offset"
       id="path-effect993"
       is_visible="true"
       lpeversion="1"
       linejoin_type="miter"
       unit="mm"
       offset="1.2"
       miter_limit="4"
       attempt_force_join="true"
       update_on_knot_move="true" />
    <inkscape:path-effect
       effect="offset"
       id="path-effect982"
       is_visible="true"
       lpeversion="1"
       linejoin_type="miter"
       unit="mm"
       offset="1.1"
       miter_limit="4"
       attempt_force_join="true"
       update_on_knot_move="true" />
    <inkscape:path-effect
       effect="offset"
       id="path-effect950"
       is_visible="true"
       lpeversion="1"
       linejoin_type="miter"
       unit="mm"
       offset="1.1"
       miter_limit="4"
       attempt_force_join="true"
       update_on_knot_move="true" />
    <inkscape:path-effect
       effect="offset"
       id="path-effect942"
       is_visible="true"
       lpeversion="1"
       linejoin_type="miter"
       unit="mm"
       offset="1.2"
       miter_limit="4"
       attempt_force_join="true"
       update_on_knot_move="true" />
    <inkscape:path-effect
       effect="offset"
       id="path-effect930"
       is_visible="true"
       lpeversion="1"
       linejoin_type="miter"
       unit="mm"
       offset="1.2"
       miter_limit="4"
       attempt_force_join="true"
       update_on_knot_move="true" />
    <inkscape:path-effect
       update_on_knot_move="true"
       attempt_force_join="true"
       miter_limit="4"
       offset="1.2"
       unit="mm"
       linejoin_type="miter"
       lpeversion="1"
       is_visible="true"
       id="path-effect918"
       effect="offset" />
    <inkscape:path-effect
       effect="offset"
       id="path-effect914"
       is_visible="true"
       lpeversion="1"
       linejoin_type="miter"
       unit="mm"
       offset="1.2"
       miter_limit="4"
       attempt_force_join="true"
       update_on_knot_move="true" />
    <filter
       inkscape:collect="always"
       style="color-interpolation-filters:sRGB"
       id="filter1768"
       x="-0.00025990907"
       width="1.0005198"
       y="-0.0031331539"
       height="1.0062663">
      <feGaussianBlur
         inkscape:collect="always"
         stdDeviation="0.031973415"
         id="feGaussianBlur1770" />
    </filter>
  </defs>
  <sodipodi:namedview
     fit-margin-bottom="0.5"
     fit-margin-right="0.5"
     fit-margin-left="0.5"
     fit-margin-top="0.5"
     inkscape:pagecheckerboard="false"
     units="in"
     id="base"
     pagecolor="#ffffff"
     bordercolor="#666666"
     borderopacity="1.0"
     inkscape:pageopacity="0"
     inkscape:pageshadow="2"
     inkscape:zoom="1.4142136"
     inkscape:cx="391.93849"
     inkscape:cy="-64.294317"
     inkscape:document-units="px"
     inkscape:current-layer="layer1"
     inkscape:document-rotation="0"
     showgrid="false"
     showborder="true"
     inkscape:window-width="2406"
     inkscape:window-height="1750"
     inkscape:window-x="1422"
     inkscape:window-y="0"
     inkscape:window-maximized="0"
     viewbox-height="30.24249"
     viewbox-width="206.83554" />
  <metadata
     id="metadata5">
    <rdf:RDF>
      <cc:Work
         rdf:about="">
        <dc:format>image/svg+xml</dc:format>
        <dc:type
           rdf:resource="http://purl.org/dc/dcmitype/StillImage" />
        <dc:title></dc:title>
      </cc:Work>
    </rdf:RDF>
  </metadata>
  <g
     transform="translate(-0.02636936,0.09530541)"
     inkscape:label="Layer 1"
     inkscape:groupmode="layer"
     id="layer1">
    <path
       id="path1851"
       style="font-style:normal;font-variant:normal;font-weight:normal;font-stretch:normal;font-size:35.4982px;line-height:2.65;font-family:'Britannic Bold';-inkscape-font-specification:'Britannic Bold, Normal';font-variant-ligatures:normal;font-variant-caps:normal;font-variant-numeric:normal;font-variant-east-asian:normal;letter-spacing:10.0425px;opacity:0.9;fill:#000000;fill-opacity:1;stroke:#000000;stroke-width:4.3147;stroke-linecap:round;stroke-linejoin:round;stroke-miterlimit:4;stroke-dasharray:none;filter:url(#filter1768)"
       d="m 275.84634,93.760637 -3.18929,0.589326 q 0.208,-0.953321 0.208,-1.594646 0,-4.125279 -5.00927,-4.125279 -3.95195,0 -3.95195,2.84263 0,2.131972 4.41994,3.657285 8.52789,2.929295 8.52789,8.666557 0,3.36262 -2.39197,5.40792 -2.39197,2.02798 -6.36125,2.02798 -8.78788,0 -8.78788,-6.81191 0,-0.55466 0.0867,-1.36932 l 3.31063,-0.72799 q -0.38133,1.50798 -0.38133,2.6173 0,4.40261 5.04393,4.40261 4.03861,0 4.03861,-3.17196 0,-2.3573 -4.83593,-4.14261 -6.98524,-2.565301 -6.98524,-8.19856 0,-3.189291 2.32263,-5.130599 2.33997,-1.958641 6.13592,-1.958641 7.7999,0 7.7999,7.019907 z" />
    <path
       id="path1853"
       style="font-style:normal;font-variant:normal;font-weight:normal;font-stretch:normal;font-size:35.4982px;line-height:2.65;font-family:'Britannic Bold';-inkscape-font-specification:'Britannic Bold, Normal';font-variant-ligatures:normal;font-variant-caps:normal;font-variant-numeric:normal;font-variant-east-asian:normal;letter-spacing:10.0425px;opacity:0.9;fill:#000000;fill-opacity:1;stroke:#000000;stroke-width:4.3147;stroke-linecap:round;stroke-linejoin:round;stroke-miterlimit:4;stroke-dasharray:none;filter:url(#filter1768)"
       d="m 305.23259,87.139391 v 2.374636 h -8.47589 v 7.158572 h 7.12391 v 2.374636 h -7.12391 v 9.377205 h 9.91454 v 2.37464 H 289.89279 V 87.139391 Z" />
    <path
       id="path1830"
       style="font-style:normal;font-variant:normal;font-weight:normal;font-stretch:normal;font-size:35.4982px;line-height:2.65;font-family:'Britannic Bold';-inkscape-font-specification:'Britannic Bold, Normal';font-variant-ligatures:normal;font-variant-caps:normal;font-variant-numeric:normal;font-variant-east-asian:normal;letter-spacing:10.0425px;fill:#ffffff;fill-opacity:1;stroke:#ffffff;stroke-width:4.3147;stroke-linecap:round;stroke-linejoin:round;stroke-miterlimit:4;stroke-dasharray:none"
       d="m 274.52489,93.598887 -3.18929,0.589325 q 0.20799,-0.953321 0.20799,-1.594645 0,-4.125279 -5.00926,-4.125279 -3.95195,0 -3.95195,2.842629 0,2.131972 4.41994,3.657285 8.52789,2.929295 8.52789,8.666548 0,3.36263 -2.39197,5.40793 -2.39197,2.02798 -6.36125,2.02798 -8.78789,0 -8.78789,-6.81191 0,-0.55466 0.0867,-1.36932 l 3.31062,-0.72799 q -0.38133,1.50798 -0.38133,2.6173 0,4.40261 5.04394,4.40261 4.03861,0 4.03861,-3.17196 0,-2.3573 -4.83593,-4.14261 -6.98525,-2.565302 -6.98525,-8.198561 0,-3.189291 2.32264,-5.130599 2.33997,-1.958641 6.13592,-1.958641 7.7999,0 7.7999,7.019908 z" />
    <path
       id="path1832"
       style="font-style:normal;font-variant:normal;font-weight:normal;font-stretch:normal;font-size:35.4982px;line-height:2.65;font-family:'Britannic Bold';-inkscape-font-specification:'Britannic Bold, Normal';font-variant-ligatures:normal;font-variant-caps:normal;font-variant-numeric:normal;font-variant-east-asian:normal;letter-spacing:10.0425px;fill:#ffffff;fill-opacity:1;stroke:#ffffff;stroke-width:4.3147;stroke-linecap:round;stroke-linejoin:round;stroke-miterlimit:4;stroke-dasharray:none"
       d="m 303.91114,86.97764 v 2.374636 h -8.47589 v 7.158572 h 7.12391 v 2.374636 h -7.12391 v 9.377206 h 9.91454 v 2.37464 H 288.57134 V 86.97764 Z" />
    <path
       id="path1809"
       style="font-style:normal;font-variant:normal;font-weight:normal;font-stretch:normal;font-size:35.4982px;line-height:2.65;font-family:'Britannic Bold';-inkscape-font-specification:'Britannic Bold, Normal';font-variant-ligatures:normal;font-variant-caps:normal;font-variant-numeric:normal;font-variant-east-asian:normal;letter-spacing:10.0425px;fill:#501616;fill-opacity:1;stroke:#501616;stroke-width:2.15735;stroke-linecap:round;stroke-linejoin:round;stroke-miterlimit:4;stroke-dasharray:none"
       d="m 274.52489,93.598887 -3.18929,0.589325 q 0.20799,-0.953321 0.20799,-1.594645 0,-4.125279 -5.00926,-4.125279 -3.95195,0 -3.95195,2.842629 0,2.131972 4.41994,3.657285 8.52789,2.929295 8.52789,8.666548 0,3.36263 -2.39197,5.40793 -2.39197,2.02798 -6.36125,2.02798 -8.78789,0 -8.78789,-6.81191 0,-0.55466 0.0867,-1.36932 l 3.31062,-0.72799 q -0.38133,1.50798 -0.38133,2.6173 0,4.40261 5.04394,4.40261 4.03861,0 4.03861,-3.17196 0,-2.3573 -4.83593,-4.14261 -6.98525,-2.565302 -6.98525,-8.198561 0,-3.189291 2.32264,-5.130599 2.33997,-1.958641 6.13592,-1.958641 7.7999,0 7.7999,7.019908 z" />
    <path
       id="path1811"
       style="font-style:normal;font-variant:normal;font-weight:normal;font-stretch:normal;font-size:35.4982px;line-height:2.65;font-family:'Britannic Bold';-inkscape-font-specification:'Britannic Bold, Normal';font-variant-ligatures:normal;font-variant-caps:normal;font-variant-numeric:normal;font-variant-east-asian:normal;letter-spacing:10.0425px;fill:#501616;fill-opacity:1;stroke:#501616;stroke-width:2.15735;stroke-linecap:round;stroke-linejoin:round;stroke-miterlimit:4;stroke-dasharray:none"
       d="m 303.91114,86.97764 v 2.374636 h -8.47589 v 7.158572 h 7.12391 v 2.374636 h -7.12391 v 9.377206 h 9.91454 v 2.37464 H 288.57134 V 86.97764 Z" />
    <g
       id="g1900">
      <path
         d="m 28.137878,101.30054 2.929295,0.76265 q 0.06933,0.90133 0.06933,1.55998 0,3.44929 -2.495967,5.51193 -2.495967,2.06264 -6.690578,2.06264 -10.521195,0 -10.521195,-11.83851 0,-5.615926 3.067959,-9.09988 3.06796,-3.501287 7.990562,-3.501287 7.678566,0 7.678566,7.383903 l -2.946628,1.351982 q 0.052,-1.039986 0.052,-1.611979 0,-5.234598 -4.194611,-5.234598 -4.437275,0 -4.437275,11.110521 0,9.550538 4.957268,9.550538 2.045306,0 3.397288,-1.62931 1.369316,-1.62931 1.369316,-4.07328 0,-0.77999 -0.225331,-2.3053 z"
         style="font-style:normal;font-variant:normal;font-weight:normal;font-stretch:normal;font-size:35.4982px;line-height:2.65;font-family:'Britannic Bold';-inkscape-font-specification:'Britannic Bold, Normal';font-variant-ligatures:normal;font-variant-caps:normal;font-variant-numeric:normal;font-variant-east-asian:normal;letter-spacing:10.0425px;opacity:0.9;fill:#000000;fill-opacity:1;stroke:#000000;stroke-width:4.3147;stroke-linecap:round;stroke-linejoin:round;stroke-miterlimit:4;stroke-dasharray:none;filter:url(#filter1768)"
         id="path1835" />
      <path
         d="m 26.816426,101.13879 2.929295,0.76265 q 0.06933,0.90133 0.06933,1.55998 0,3.44929 -2.495967,5.51193 -2.495967,2.06264 -6.690578,2.06264 -10.521195,0 -10.521195,-11.83851 0,-5.615926 3.067959,-9.099881 3.06796,-3.501287 7.990562,-3.501287 7.678565,0 7.678565,7.383903 l -2.946627,1.351982 q 0.052,-1.039986 0.052,-1.611979 0,-5.234597 -4.194612,-5.234597 -4.437275,0 -4.437275,11.11052 0,9.550539 4.957269,9.550539 2.045306,0 3.397288,-1.62931 1.369315,-1.62931 1.369315,-4.07328 0,-0.77999 -0.225329,-2.3053 z"
         style="font-style:normal;font-variant:normal;font-weight:normal;font-stretch:normal;font-size:35.4982px;line-height:2.65;font-family:'Britannic Bold';-inkscape-font-specification:'Britannic Bold, Normal';font-variant-ligatures:normal;font-variant-caps:normal;font-variant-numeric:normal;font-variant-east-asian:normal;letter-spacing:10.0425px;fill:#ffffff;fill-opacity:1;stroke:#ffffff;stroke-width:4.3147;stroke-linecap:round;stroke-linejoin:round;stroke-miterlimit:4;stroke-dasharray:none"
         id="path1814" />
      <path
         d="m 26.816426,101.13879 2.929295,0.76265 q 0.06933,0.90133 0.06933,1.55998 0,3.44929 -2.495967,5.51193 -2.495967,2.06264 -6.690578,2.06264 -10.521195,0 -10.521195,-11.83851 0,-5.615926 3.067959,-9.099881 3.06796,-3.501287 7.990562,-3.501287 7.678565,0 7.678565,7.383903 l -2.946627,1.351982 q 0.052,-1.039986 0.052,-1.611979 0,-5.234597 -4.194612,-5.234597 -4.437275,0 -4.437275,11.11052 0,9.550539 4.957269,9.550539 2.045306,0 3.397288,-1.62931 1.369315,-1.62931 1.369315,-4.07328 0,-0.77999 -0.225329,-2.3053 z"
         style="font-style:normal;font-variant:normal;font-weight:normal;font-stretch:normal;font-size:35.4982px;line-height:2.65;font-family:'Britannic Bold';-inkscape-font-specification:'Britannic Bold, Normal';font-variant-ligatures:normal;font-variant-caps:normal;font-variant-numeric:normal;font-variant-east-asian:normal;letter-spacing:10.0425px;fill:#501616;fill-opacity:1;stroke:#501616;stroke-width:2.15735;stroke-linecap:round;stroke-linejoin:round;stroke-miterlimit:4;stroke-dasharray:none"
         id="path1793" />
      <path
         d="m 26.816426,101.13879 2.929295,0.76265 q 0.06933,0.90133 0.06933,1.55998 0,3.44929 -2.495967,5.51193 -2.495967,2.06264 -6.690578,2.06264 -10.521195,0 -10.521195,-11.83851 0,-5.615926 3.067959,-9.099881 3.06796,-3.501287 7.990562,-3.501287 7.678565,0 7.678565,7.383903 l -2.946627,1.351982 q 0.052,-1.039986 0.052,-1.611979 0,-5.234597 -4.194612,-5.234597 -4.437275,0 -4.437275,11.11052 0,9.550539 4.957269,9.550539 2.045306,0 3.397288,-1.62931 1.369315,-1.62931 1.369315,-4.07328 0,-0.77999 -0.225329,-2.3053 z"
         style="font-style:normal;font-variant:normal;font-weight:normal;font-stretch:normal;font-size:35.4982px;line-height:2.65;font-family:'Britannic Bold';-inkscape-font-specification:'Britannic Bold, Normal';font-variant-ligatures:normal;font-variant-caps:normal;font-variant-numeric:normal;font-variant-east-asian:normal;letter-spacing:10.0425px;fill:#ffffff;fill-opacity:1;stroke:none;stroke-width:0.887457"
         id="path1772" />
    </g>
    <g
       id="g1906">
      <path
         d="m 50.642881,99.029901 v 11.769179 h -6.86391 V 87.139391 h 6.86391 v 9.515875 h 5.598592 v -9.515875 h 6.86391 v 23.659689 h -6.86391 V 99.029901 Z"
         style="font-style:normal;font-variant:normal;font-weight:normal;font-stretch:normal;font-size:35.4982px;line-height:2.65;font-family:'Britannic Bold';-inkscape-font-specification:'Britannic Bold, Normal';font-variant-ligatures:normal;font-variant-caps:normal;font-variant-numeric:normal;font-variant-east-asian:normal;letter-spacing:10.0425px;opacity:0.9;fill:#000000;fill-opacity:1;stroke:#000000;stroke-width:4.3147;stroke-linecap:round;stroke-linejoin:round;stroke-miterlimit:4;stroke-dasharray:none;filter:url(#filter1768)"
         id="path1837" />
      <path
         d="M 49.321428,98.868151 V 110.63733 H 42.457519 V 86.97764 h 6.863909 v 9.515875 h 5.598593 V 86.97764 h 6.86391 v 23.65969 h -6.86391 V 98.868151 Z"
         style="font-style:normal;font-variant:normal;font-weight:normal;font-stretch:normal;font-size:35.4982px;line-height:2.65;font-family:'Britannic Bold';-inkscape-font-specification:'Britannic Bold, Normal';font-variant-ligatures:normal;font-variant-caps:normal;font-variant-numeric:normal;font-variant-east-asian:normal;letter-spacing:10.0425px;fill:#ffffff;fill-opacity:1;stroke:#ffffff;stroke-width:4.3147;stroke-linecap:round;stroke-linejoin:round;stroke-miterlimit:4;stroke-dasharray:none"
         id="path1816" />
      <path
         d="M 49.321428,98.868151 V 110.63733 H 42.457519 V 86.97764 h 6.863909 v 9.515875 h 5.598593 V 86.97764 h 6.86391 v 23.65969 h -6.86391 V 98.868151 Z"
         style="font-style:normal;font-variant:normal;font-weight:normal;font-stretch:normal;font-size:35.4982px;line-height:2.65;font-family:'Britannic Bold';-inkscape-font-specification:'Britannic Bold, Normal';font-variant-ligatures:normal;font-variant-caps:normal;font-variant-numeric:normal;font-variant-east-asian:normal;letter-spacing:10.0425px;fill:#501616;fill-opacity:1;stroke:#501616;stroke-width:2.15735;stroke-linecap:round;stroke-linejoin:round;stroke-miterlimit:4;stroke-dasharray:none"
         id="path1795" />
      <path
         d="M 49.321428,98.868151 V 110.63733 H 42.457519 V 86.97764 h 6.863909 v 9.515875 h 5.598593 V 86.97764 h 6.86391 v 23.65969 h -6.86391 V 98.868151 Z"
         style="font-style:normal;font-variant:normal;font-weight:normal;font-stretch:normal;font-size:35.4982px;line-height:2.65;font-family:'Britannic Bold';-inkscape-font-specification:'Britannic Bold, Normal';font-variant-ligatures:normal;font-variant-caps:normal;font-variant-numeric:normal;font-variant-east-asian:normal;letter-spacing:10.0425px;fill:#ffffff;fill-opacity:1;stroke:none;stroke-width:0.887457"
         id="path1774" />
    </g>
    <g
       id="g1912">
      <path
         d="m 87.950353,87.139391 6.58658,23.659689 h -6.898576 l -1.403981,-5.1306 H 79.11047 l -1.507981,5.1306 h -2.686631 l 7.002575,-23.659689 z m -8.163892,16.154459 h 5.80659 l -2.79063,-10.486533 z"
         style="font-style:normal;font-variant:normal;font-weight:normal;font-stretch:normal;font-size:35.4982px;line-height:2.65;font-family:'Britannic Bold';-inkscape-font-specification:'Britannic Bold, Normal';font-variant-ligatures:normal;font-variant-caps:normal;font-variant-numeric:normal;font-variant-east-asian:normal;letter-spacing:10.0425px;opacity:0.9;fill:#000000;fill-opacity:1;stroke:#000000;stroke-width:4.3147;stroke-linecap:round;stroke-linejoin:round;stroke-miterlimit:4;stroke-dasharray:none;filter:url(#filter1768)"
         id="path1839" />
      <path
         d="m 86.628901,86.97764 6.58658,23.65969 h -6.898576 l -1.403981,-5.1306 h -7.123907 l -1.50798,5.1306 h -2.686631 l 7.002575,-23.65969 z m -8.163892,16.15445 h 5.80659 l -2.79063,-10.486524 z"
         style="font-style:normal;font-variant:normal;font-weight:normal;font-stretch:normal;font-size:35.4982px;line-height:2.65;font-family:'Britannic Bold';-inkscape-font-specification:'Britannic Bold, Normal';font-variant-ligatures:normal;font-variant-caps:normal;font-variant-numeric:normal;font-variant-east-asian:normal;letter-spacing:10.0425px;fill:#ffffff;fill-opacity:1;stroke:#ffffff;stroke-width:4.3147;stroke-linecap:round;stroke-linejoin:round;stroke-miterlimit:4;stroke-dasharray:none"
         id="path1818" />
      <path
         d="m 86.628901,86.97764 6.58658,23.65969 h -6.898576 l -1.403981,-5.1306 h -7.123907 l -1.50798,5.1306 h -2.686631 l 7.002575,-23.65969 z m -8.163892,16.15445 h 5.80659 l -2.79063,-10.486524 z"
         style="font-style:normal;font-variant:normal;font-weight:normal;font-stretch:normal;font-size:35.4982px;line-height:2.65;font-family:'Britannic Bold';-inkscape-font-specification:'Britannic Bold, Normal';font-variant-ligatures:normal;font-variant-caps:normal;font-variant-numeric:normal;font-variant-east-asian:normal;letter-spacing:10.0425px;fill:#501616;fill-opacity:1;stroke:#501616;stroke-width:2.15735;stroke-linecap:round;stroke-linejoin:round;stroke-miterlimit:4;stroke-dasharray:none"
         id="path1797" />
      <path
         d="m 86.628901,86.97764 6.58658,23.65969 h -6.898576 l -1.403981,-5.1306 h -7.123907 l -1.50798,5.1306 h -2.686631 l 7.002575,-23.65969 z m -8.163892,16.15445 h 5.80659 l -2.79063,-10.486524 z"
         style="font-style:normal;font-variant:normal;font-weight:normal;font-stretch:normal;font-size:35.4982px;line-height:2.65;font-family:'Britannic Bold';-inkscape-font-specification:'Britannic Bold, Normal';font-variant-ligatures:normal;font-variant-caps:normal;font-variant-numeric:normal;font-variant-east-asian:normal;letter-spacing:10.0425px;fill:#ffffff;fill-opacity:1;stroke:none;stroke-width:0.887457"
         id="path1776" />
    </g>
    <g
       id="g1925">
      <g
         id="g1918">
        <path
           id="path1841"
           style="font-style:normal;font-variant:normal;font-weight:normal;font-stretch:normal;font-size:35.4982px;line-height:2.65;font-family:'Britannic Bold';-inkscape-font-specification:'Britannic Bold, Normal';font-variant-ligatures:normal;font-variant-caps:normal;font-variant-numeric:normal;font-variant-east-asian:normal;letter-spacing:10.0425px;opacity:0.9;fill:#000000;fill-opacity:1;stroke:#000000;stroke-width:4.3147;stroke-linecap:round;stroke-linejoin:round;stroke-miterlimit:4;stroke-dasharray:none;filter:url(#filter1768)"
           d="M 106.45141,110.79908 V 87.139391 h 10.17453 q 3.96928,0 6.34392,1.681311 2.37463,1.663979 2.37463,4.471942 0,4.29861 -5.09593,5.598593 2.6173,0.970654 3.37996,2.131973 0.77999,1.16132 1.05732,4.50661 0.32933,3.98661 1.33465,5.26926 h -7.45324 q -0.71066,-1.64665 -0.71066,-4.10795 l -0.0347,-1.40398 -0.0347,-1.76797 q 0,-4.090617 -3.29329,-4.090617 h -1.17865 v 11.370517 z m 6.86391,-13.329158 h 1.38665 q 3.89995,0 3.89995,-4.07328 0,-4.073279 -3.89995,-4.073279 h -1.38665 z" />
        <path
           id="path1820"
           style="font-style:normal;font-variant:normal;font-weight:normal;font-stretch:normal;font-size:35.4982px;line-height:2.65;font-family:'Britannic Bold';-inkscape-font-specification:'Britannic Bold, Normal';font-variant-ligatures:normal;font-variant-caps:normal;font-variant-numeric:normal;font-variant-east-asian:normal;letter-spacing:10.0425px;fill:#ffffff;fill-opacity:1;stroke:#ffffff;stroke-width:4.3147;stroke-linecap:round;stroke-linejoin:round;stroke-miterlimit:4;stroke-dasharray:none"
           d="M 105.12996,110.63733 V 86.97764 h 10.17453 q 3.96928,0 6.34392,1.681312 2.37463,1.663978 2.37463,4.471941 0,4.29861 -5.09593,5.598593 2.6173,0.970654 3.37995,2.131974 0.77999,1.16132 1.05732,4.50661 0.32933,3.98661 1.33465,5.26926 h -7.45323 q -0.71066,-1.64665 -0.71066,-4.10795 l -0.0347,-1.40398 -0.0347,-1.76798 q 0,-4.090608 -3.29329,-4.090608 h -1.17865 v 11.370518 z m 6.86391,-13.329159 h 1.38665 q 3.89994,0 3.89994,-4.07328 0,-4.073279 -3.89994,-4.073279 h -1.38665 z" />
        <path
           id="path1799"
           style="font-style:normal;font-variant:normal;font-weight:normal;font-stretch:normal;font-size:35.4982px;line-height:2.65;font-family:'Britannic Bold';-inkscape-font-specification:'Britannic Bold, Normal';font-variant-ligatures:normal;font-variant-caps:normal;font-variant-numeric:normal;font-variant-east-asian:normal;letter-spacing:10.0425px;fill:#501616;fill-opacity:1;stroke:#501616;stroke-width:2.15735;stroke-linecap:round;stroke-linejoin:round;stroke-miterlimit:4;stroke-dasharray:none"
           d="M 105.12996,110.63733 V 86.97764 h 10.17453 q 3.96928,0 6.34392,1.681312 2.37463,1.663978 2.37463,4.471941 0,4.29861 -5.09593,5.598593 2.6173,0.970654 3.37995,2.131974 0.77999,1.16132 1.05732,4.50661 0.32933,3.98661 1.33465,5.26926 h -7.45323 q -0.71066,-1.64665 -0.71066,-4.10795 l -0.0347,-1.40398 -0.0347,-1.76798 q 0,-4.090608 -3.29329,-4.090608 h -1.17865 v 11.370518 z m 6.86391,-13.329159 h 1.38665 q 3.89994,0 3.89994,-4.07328 0,-4.073279 -3.89994,-4.073279 h -1.38665 z" />
        <path
           id="path1778"
           style="font-style:normal;font-variant:normal;font-weight:normal;font-stretch:normal;font-size:35.4982px;line-height:2.65;font-family:'Britannic Bold';-inkscape-font-specification:'Britannic Bold, Normal';font-variant-ligatures:normal;font-variant-caps:normal;font-variant-numeric:normal;font-variant-east-asian:normal;letter-spacing:10.0425px;fill:#ffffff;fill-opacity:1;stroke:none;stroke-width:0.887457"
           d="M 105.12996,110.63733 V 86.97764 h 10.17453 q 3.96928,0 6.34392,1.681312 2.37463,1.663978 2.37463,4.471941 0,4.29861 -5.09593,5.598593 2.6173,0.970654 3.37995,2.131974 0.77999,1.16132 1.05732,4.50661 0.32933,3.98661 1.33465,5.26926 h -7.45323 q -0.71066,-1.64665 -0.71066,-4.10795 l -0.0347,-1.40398 -0.0347,-1.76798 q 0,-4.090608 -3.29329,-4.090608 h -1.17865 v 11.370518 z m 6.86391,-13.329159 h 1.38665 q 3.89994,0 3.89994,-4.07328 0,-4.073279 -3.89994,-4.073279 h -1.38665 z" />
      </g>
    </g>
    <g
       id="g1931">
      <path
         d="m 155.56273,87.139391 v 2.374636 h -5.80659 v 21.285053 h -7.27991 V 89.514027 h -5.84125 v -2.374636 z"
         style="font-style:normal;font-variant:normal;font-weight:normal;font-stretch:normal;font-size:35.4982px;line-height:2.65;font-family:'Britannic Bold';-inkscape-font-specification:'Britannic Bold, Normal';font-variant-ligatures:normal;font-variant-caps:normal;font-variant-numeric:normal;font-variant-east-asian:normal;letter-spacing:10.0425px;opacity:0.9;fill:#000000;fill-opacity:1;stroke:#000000;stroke-width:4.3147;stroke-linecap:round;stroke-linejoin:round;stroke-miterlimit:4;stroke-dasharray:none;filter:url(#filter1768)"
         id="path1843" />
      <path
         d="m 154.24127,86.97764 v 2.374636 h -5.80659 v 21.285054 h -7.2799 V 89.352276 h -5.84126 V 86.97764 Z"
         style="font-style:normal;font-variant:normal;font-weight:normal;font-stretch:normal;font-size:35.4982px;line-height:2.65;font-family:'Britannic Bold';-inkscape-font-specification:'Britannic Bold, Normal';font-variant-ligatures:normal;font-variant-caps:normal;font-variant-numeric:normal;font-variant-east-asian:normal;letter-spacing:10.0425px;fill:#ffffff;fill-opacity:1;stroke:#ffffff;stroke-width:4.3147;stroke-linecap:round;stroke-linejoin:round;stroke-miterlimit:4;stroke-dasharray:none"
         id="path1822" />
      <path
         d="m 154.24127,86.97764 v 2.374636 h -5.80659 v 21.285054 h -7.2799 V 89.352276 h -5.84126 V 86.97764 Z"
         style="font-style:normal;font-variant:normal;font-weight:normal;font-stretch:normal;font-size:35.4982px;line-height:2.65;font-family:'Britannic Bold';-inkscape-font-specification:'Britannic Bold, Normal';font-variant-ligatures:normal;font-variant-caps:normal;font-variant-numeric:normal;font-variant-east-asian:normal;letter-spacing:10.0425px;fill:#501616;fill-opacity:1;stroke:#501616;stroke-width:2.15735;stroke-linecap:round;stroke-linejoin:round;stroke-miterlimit:4;stroke-dasharray:none"
         id="path1801" />
      <path
         d="m 154.24127,86.97764 v 2.374636 h -5.80659 v 21.285054 h -7.2799 V 89.352276 h -5.84126 V 86.97764 Z"
         style="font-style:normal;font-variant:normal;font-weight:normal;font-stretch:normal;font-size:35.4982px;line-height:2.65;font-family:'Britannic Bold';-inkscape-font-specification:'Britannic Bold, Normal';font-variant-ligatures:normal;font-variant-caps:normal;font-variant-numeric:normal;font-variant-east-asian:normal;letter-spacing:10.0425px;fill:#ffffff;fill-opacity:1;stroke:none;stroke-width:0.887457"
         id="path1780" />
    </g>
    <g
       id="g1937">
      <path
         d="M 167.3732,110.79908 V 87.139391 h 10.17453 q 3.96928,0 6.34392,1.681311 2.37464,1.663979 2.37464,4.471942 0,4.29861 -5.09594,5.598593 2.6173,0.970654 3.37996,2.131973 0.77999,1.16132 1.05732,4.50661 0.32933,3.98661 1.33465,5.26926 h -7.45324 q -0.71066,-1.64665 -0.71066,-4.10795 l -0.0347,-1.40398 -0.0347,-1.76797 q 0,-4.090617 -3.29329,-4.090617 h -1.17865 v 11.370517 z m 6.86391,-13.329158 h 1.38665 q 3.89995,0 3.89995,-4.07328 0,-4.073279 -3.89995,-4.073279 h -1.38665 z"
         style="font-style:normal;font-variant:normal;font-weight:normal;font-stretch:normal;font-size:35.4982px;line-height:2.65;font-family:'Britannic Bold';-inkscape-font-specification:'Britannic Bold, Normal';font-variant-ligatures:normal;font-variant-caps:normal;font-variant-numeric:normal;font-variant-east-asian:normal;letter-spacing:10.0425px;opacity:0.9;fill:#000000;fill-opacity:1;stroke:#000000;stroke-width:4.3147;stroke-linecap:round;stroke-linejoin:round;stroke-miterlimit:4;stroke-dasharray:none;filter:url(#filter1768)"
         id="path1845" />
      <path
         d="M 166.05175,110.63733 V 86.97764 h 10.17453 q 3.96928,0 6.34392,1.681312 2.37463,1.663978 2.37463,4.471941 0,4.29861 -5.09593,5.598593 2.6173,0.970654 3.37996,2.131974 0.77999,1.16132 1.05732,4.50661 0.32932,3.98661 1.33464,5.26926 h -7.45323 q -0.71066,-1.64665 -0.71066,-4.10795 l -0.0347,-1.40398 -0.0347,-1.76798 q 0,-4.090608 -3.29329,-4.090608 h -1.17865 v 11.370518 z m 6.86391,-13.329159 h 1.38665 q 3.89995,0 3.89995,-4.07328 0,-4.073279 -3.89995,-4.073279 h -1.38665 z"
         style="font-style:normal;font-variant:normal;font-weight:normal;font-stretch:normal;font-size:35.4982px;line-height:2.65;font-family:'Britannic Bold';-inkscape-font-specification:'Britannic Bold, Normal';font-variant-ligatures:normal;font-variant-caps:normal;font-variant-numeric:normal;font-variant-east-asian:normal;letter-spacing:10.0425px;fill:#ffffff;fill-opacity:1;stroke:#ffffff;stroke-width:4.3147;stroke-linecap:round;stroke-linejoin:round;stroke-miterlimit:4;stroke-dasharray:none"
         id="path1824" />
      <path
         d="M 166.05175,110.63733 V 86.97764 h 10.17453 q 3.96928,0 6.34392,1.681312 2.37463,1.663978 2.37463,4.471941 0,4.29861 -5.09593,5.598593 2.6173,0.970654 3.37996,2.131974 0.77999,1.16132 1.05732,4.50661 0.32932,3.98661 1.33464,5.26926 h -7.45323 q -0.71066,-1.64665 -0.71066,-4.10795 l -0.0347,-1.40398 -0.0347,-1.76798 q 0,-4.090608 -3.29329,-4.090608 h -1.17865 v 11.370518 z m 6.86391,-13.329159 h 1.38665 q 3.89995,0 3.89995,-4.07328 0,-4.073279 -3.89995,-4.073279 h -1.38665 z"
         style="font-style:normal;font-variant:normal;font-weight:normal;font-stretch:normal;font-size:35.4982px;line-height:2.65;font-family:'Britannic Bold';-inkscape-font-specification:'Britannic Bold, Normal';font-variant-ligatures:normal;font-variant-caps:normal;font-variant-numeric:normal;font-variant-east-asian:normal;letter-spacing:10.0425px;fill:#501616;fill-opacity:1;stroke:#501616;stroke-width:2.15735;stroke-linecap:round;stroke-linejoin:round;stroke-miterlimit:4;stroke-dasharray:none"
         id="path1803" />
      <path
         d="M 166.05175,110.63733 V 86.97764 h 10.17453 q 3.96928,0 6.34392,1.681312 2.37463,1.663978 2.37463,4.471941 0,4.29861 -5.09593,5.598593 2.6173,0.970654 3.37996,2.131974 0.77999,1.16132 1.05732,4.50661 0.32932,3.98661 1.33464,5.26926 h -7.45323 q -0.71066,-1.64665 -0.71066,-4.10795 l -0.0347,-1.40398 -0.0347,-1.76798 q 0,-4.090608 -3.29329,-4.090608 h -1.17865 v 11.370518 z m 6.86391,-13.329159 h 1.38665 q 3.89995,0 3.89995,-4.07328 0,-4.073279 -3.89995,-4.073279 h -1.38665 z"
         style="font-style:normal;font-variant:normal;font-weight:normal;font-stretch:normal;font-size:35.4982px;line-height:2.65;font-family:'Britannic Bold';-inkscape-font-specification:'Britannic Bold, Normal';font-variant-ligatures:normal;font-variant-caps:normal;font-variant-numeric:normal;font-variant-east-asian:normal;letter-spacing:10.0425px;fill:#ffffff;fill-opacity:1;stroke:none;stroke-width:0.887457"
         id="path1782" />
    </g>
    <g
       id="g1943">
      <path
         d="m 215.20188,87.139391 v 2.374636 h -8.47589 v 7.158572 h 7.1239 v 2.374636 h -7.1239 v 9.377205 h 9.91453 v 2.37464 H 199.86208 V 87.139391 Z"
         style="font-style:normal;font-variant:normal;font-weight:normal;font-stretch:normal;font-size:35.4982px;line-height:2.65;font-family:'Britannic Bold';-inkscape-font-specification:'Britannic Bold, Normal';font-variant-ligatures:normal;font-variant-caps:normal;font-variant-numeric:normal;font-variant-east-asian:normal;letter-spacing:10.0425px;opacity:0.9;fill:#000000;fill-opacity:1;stroke:#000000;stroke-width:4.3147;stroke-linecap:round;stroke-linejoin:round;stroke-miterlimit:4;stroke-dasharray:none;filter:url(#filter1768)"
         id="path1847" />
      <path
         d="m 213.88042,86.97764 v 2.374636 h -8.47588 v 7.158572 h 7.1239 v 2.374636 h -7.1239 v 9.377206 h 9.91453 v 2.37464 H 198.54063 V 86.97764 Z"
         style="font-style:normal;font-variant:normal;font-weight:normal;font-stretch:normal;font-size:35.4982px;line-height:2.65;font-family:'Britannic Bold';-inkscape-font-specification:'Britannic Bold, Normal';font-variant-ligatures:normal;font-variant-caps:normal;font-variant-numeric:normal;font-variant-east-asian:normal;letter-spacing:10.0425px;fill:#ffffff;fill-opacity:1;stroke:#ffffff;stroke-width:4.3147;stroke-linecap:round;stroke-linejoin:round;stroke-miterlimit:4;stroke-dasharray:none"
         id="path1826" />
      <path
         d="m 213.88042,86.97764 v 2.374636 h -8.47588 v 7.158572 h 7.1239 v 2.374636 h -7.1239 v 9.377206 h 9.91453 v 2.37464 H 198.54063 V 86.97764 Z"
         style="font-style:normal;font-variant:normal;font-weight:normal;font-stretch:normal;font-size:35.4982px;line-height:2.65;font-family:'Britannic Bold';-inkscape-font-specification:'Britannic Bold, Normal';font-variant-ligatures:normal;font-variant-caps:normal;font-variant-numeric:normal;font-variant-east-asian:normal;letter-spacing:10.0425px;fill:#501616;fill-opacity:1;stroke:#501616;stroke-width:2.15735;stroke-linecap:round;stroke-linejoin:round;stroke-miterlimit:4;stroke-dasharray:none"
         id="path1805" />
      <path
         d="m 213.88042,86.97764 v 2.374636 h -8.47588 v 7.158572 h 7.1239 v 2.374636 h -7.1239 v 9.377206 h 9.91453 v 2.37464 H 198.54063 V 86.97764 Z"
         style="font-style:normal;font-variant:normal;font-weight:normal;font-stretch:normal;font-size:35.4982px;line-height:2.65;font-family:'Britannic Bold';-inkscape-font-specification:'Britannic Bold, Normal';font-variant-ligatures:normal;font-variant-caps:normal;font-variant-numeric:normal;font-variant-east-asian:normal;letter-spacing:10.0425px;fill:#ffffff;fill-opacity:1;stroke:none;stroke-width:0.887457"
         id="path1784" />
    </g>
    <g
       id="g1949">
      <path
         d="m 246.63342,87.139391 v 15.877129 q 0,8.16389 -9.03055,8.16389 -8.99588,0 -8.99588,-8.16389 V 87.139391 h 6.86391 v 16.085119 q 0,3.11996 0.88399,4.26395 0.90132,1.14398 3.31062,1.14398 4.66261,0 4.66261,-5.61592 V 87.139391 Z"
         style="font-style:normal;font-variant:normal;font-weight:normal;font-stretch:normal;font-size:35.4982px;line-height:2.65;font-family:'Britannic Bold';-inkscape-font-specification:'Britannic Bold, Normal';font-variant-ligatures:normal;font-variant-caps:normal;font-variant-numeric:normal;font-variant-east-asian:normal;letter-spacing:10.0425px;opacity:0.9;fill:#000000;fill-opacity:1;stroke:#000000;stroke-width:4.3147;stroke-linecap:round;stroke-linejoin:round;stroke-miterlimit:4;stroke-dasharray:none;filter:url(#filter1768)"
         id="path1849" />
      <path
         d="m 245.31197,86.97764 v 15.87712 q 0,8.1639 -9.03055,8.1639 -8.99588,0 -8.99588,-8.1639 V 86.97764 h 6.86391 v 16.08512 q 0,3.11996 0.88399,4.26395 0.90132,1.14398 3.31062,1.14398 4.66261,0 4.66261,-5.61593 V 86.97764 Z"
         style="font-style:normal;font-variant:normal;font-weight:normal;font-stretch:normal;font-size:35.4982px;line-height:2.65;font-family:'Britannic Bold';-inkscape-font-specification:'Britannic Bold, Normal';font-variant-ligatures:normal;font-variant-caps:normal;font-variant-numeric:normal;font-variant-east-asian:normal;letter-spacing:10.0425px;fill:#ffffff;fill-opacity:1;stroke:#ffffff;stroke-width:4.3147;stroke-linecap:round;stroke-linejoin:round;stroke-miterlimit:4;stroke-dasharray:none"
         id="path1828" />
      <path
         d="m 245.31197,86.97764 v 15.87712 q 0,8.1639 -9.03055,8.1639 -8.99588,0 -8.99588,-8.1639 V 86.97764 h 6.86391 v 16.08512 q 0,3.11996 0.88399,4.26395 0.90132,1.14398 3.31062,1.14398 4.66261,0 4.66261,-5.61593 V 86.97764 Z"
         style="font-style:normal;font-variant:normal;font-weight:normal;font-stretch:normal;font-size:35.4982px;line-height:2.65;font-family:'Britannic Bold';-inkscape-font-specification:'Britannic Bold, Normal';font-variant-ligatures:normal;font-variant-caps:normal;font-variant-numeric:normal;font-variant-east-asian:normal;letter-spacing:10.0425px;fill:#501616;fill-opacity:1;stroke:#501616;stroke-width:2.15735;stroke-linecap:round;stroke-linejoin:round;stroke-miterlimit:4;stroke-dasharray:none"
         id="path1807" />
      <path
         d="m 245.31197,86.97764 v 15.87712 q 0,8.1639 -9.03055,8.1639 -8.99588,0 -8.99588,-8.1639 V 86.97764 h 6.86391 v 16.08512 q 0,3.11996 0.88399,4.26395 0.90132,1.14398 3.31062,1.14398 4.66261,0 4.66261,-5.61593 V 86.97764 Z"
         style="font-style:normal;font-variant:normal;font-weight:normal;font-stretch:normal;font-size:35.4982px;line-height:2.65;font-family:'Britannic Bold';-inkscape-font-specification:'Britannic Bold, Normal';font-variant-ligatures:normal;font-variant-caps:normal;font-variant-numeric:normal;font-variant-east-asian:normal;letter-spacing:10.0425px;fill:#ffffff;fill-opacity:1;stroke:none;stroke-width:0.887457"
         id="path1786" />
    </g>
    <path
       id="path1788"
       style="font-style:normal;font-variant:normal;font-weight:normal;font-stretch:normal;font-size:35.4982px;line-height:2.65;font-family:'Britannic Bold';-inkscape-font-specification:'Britannic Bold, Normal';font-variant-ligatures:normal;font-variant-caps:normal;font-variant-numeric:normal;font-variant-east-asian:normal;letter-spacing:10.0425px;fill:#ffffff;fill-opacity:1;stroke:none;stroke-width:0.887457"
       d="m 274.52489,93.598887 -3.18929,0.589325 q 0.20799,-0.953321 0.20799,-1.594645 0,-4.125279 -5.00926,-4.125279 -3.95195,0 -3.95195,2.842629 0,2.131972 4.41994,3.657285 8.52789,2.929295 8.52789,8.666548 0,3.36263 -2.39197,5.40793 -2.39197,2.02798 -6.36125,2.02798 -8.78789,0 -8.78789,-6.81191 0,-0.55466 0.0867,-1.36932 l 3.31062,-0.72799 q -0.38133,1.50798 -0.38133,2.6173 0,4.40261 5.04394,4.40261 4.03861,0 4.03861,-3.17196 0,-2.3573 -4.83593,-4.14261 -6.98525,-2.565302 -6.98525,-8.198561 0,-3.189291 2.32264,-5.130599 2.33997,-1.958641 6.13592,-1.958641 7.7999,0 7.7999,7.019908 z" />
    <path
       id="path1790"
       style="font-style:normal;font-variant:normal;font-weight:normal;font-stretch:normal;font-size:35.4982px;line-height:2.65;font-family:'Britannic Bold';-inkscape-font-specification:'Britannic Bold, Normal';font-variant-ligatures:normal;font-variant-caps:normal;font-variant-numeric:normal;font-variant-east-asian:normal;letter-spacing:10.0425px;fill:#ffffff;fill-opacity:1;stroke:none;stroke-width:0.887457"
       d="m 303.91114,86.97764 v 2.374636 h -8.47589 v 7.158572 h 7.12391 v 2.374636 h -7.12391 v 9.377206 h 9.91454 v 2.37464 H 288.57134 V 86.97764 Z" />
  </g>
</svg>
